<svg width="164" height="164" viewBox="0 0 164 164" fill="none" xmlns="http://www.w3.org/2000/svg">
<rect x="0.804619" y="0.679436" width="162.801" height="162.801" rx="32" fill="#646177"/>
<path d="M82.2052 82.08L82.2052 45.6551M82.2052 82.08L55.901 55.7759M82.2052 82.08L45.7803 82.08M82.2052 82.08L118.63 82.08M82.2052 82.08L108.509 55.7759M82.2052 82.08L82.2052 118.505M82.2052 82.08L55.901 108.384M82.2052 82.08L108.509 108.384M34.4962 34.3711L55.901 55.7759M34.4962 34.3711C56.1905 42.295 75.1064 31.3457 82.2052 14.2946M34.4962 34.3711C42.4202 56.0653 31.4709 74.9812 14.4198 82.08M82.2052 14.2946L82.2052 45.6551M82.2052 14.2946C89.304 31.3457 108.22 42.295 129.914 34.3711M82.2052 45.6551C77.0975 55.4864 66.0218 59.5931 55.901 55.7759M82.2052 45.6551C87.3129 55.4864 98.3886 59.5931 108.509 55.7759M55.901 55.7759C59.7183 65.8966 55.6116 76.9723 45.7803 82.08M45.7803 82.08L14.4198 82.08M45.7803 82.08C55.6116 87.1877 59.7183 98.2634 55.901 108.384M14.4198 82.08C31.4709 89.1788 42.4202 108.095 34.4962 129.789M129.914 34.3711L108.509 55.7759M129.914 34.3711C121.99 56.0653 132.94 74.9812 149.991 82.08M149.991 82.08H118.63M149.991 82.08C132.94 89.1788 121.99 108.095 129.914 129.789M118.63 82.08C108.799 76.9723 104.692 65.8966 108.509 55.7759M118.63 82.08C108.799 87.1877 104.692 98.2634 108.509 108.384M34.4962 129.789L55.901 108.384M34.4962 129.789C56.1905 121.865 75.1064 132.814 82.2052 149.865M82.2052 149.865L82.2052 118.505M82.2052 149.865C89.304 132.814 108.22 121.865 129.914 129.789M82.2052 118.505C77.0975 108.674 66.0218 104.567 55.901 108.384M82.2052 118.505C87.3129 108.674 98.3886 104.567 108.509 108.384M129.914 129.789L108.509 108.384" stroke="#ADADAD" stroke-width="4" stroke-miterlimit="2.5593" stroke-linejoin="round"/>
<mask id="path-3-outside-1_5_22" maskUnits="userSpaceOnUse" x="24.3233" y="61.58" width="120" height="42" fill="black">
<rect fill="white" x="24.3233" y="61.58" width="120" height="42"/>
<path d="M27.855 99.58V65.548H28.335L41.871 81.508L55.311 65.548H55.839V99.58H49.887V85.228L50.103 79.564L48.399 82.156L41.823 89.884L35.247 82.156L33.543 79.564L33.807 85.228V99.58H27.855ZM69.5778 99.58V66.124H75.7218V99.58H69.5778ZM89.4825 99.58V66.124H98.4585C100.73 66.124 102.794 66.468 104.65 67.156C106.506 67.844 107.986 69.044 109.09 70.756C110.194 72.452 110.746 74.812 110.746 77.836C110.746 80.028 110.33 82.1 109.498 84.052C108.666 85.988 107.354 87.564 105.562 88.78C103.786 89.996 101.482 90.604 98.6505 90.604H95.6745V99.58H89.4825ZM98.0745 70.972H95.6745V85.564H98.2185C100.33 85.564 101.914 84.932 102.97 83.668C104.026 82.404 104.554 80.572 104.554 78.172C104.554 75.724 104.074 73.916 103.114 72.748C102.154 71.564 100.474 70.972 98.0745 70.972ZM130.217 100.108C127.865 100.108 125.809 99.716 124.049 98.932C122.289 98.148 121.001 97.324 120.185 96.46L122.633 91.42C122.969 91.852 123.497 92.34 124.217 92.884C124.953 93.428 125.801 93.908 126.761 94.324C127.737 94.724 128.745 94.924 129.785 94.924C130.985 94.924 132.025 94.588 132.905 93.916C133.801 93.244 134.249 92.252 134.249 90.94C134.249 89.644 133.785 88.62 132.857 87.868C131.945 87.1 130.697 86.236 129.113 85.276C127.817 84.492 126.545 83.66 125.297 82.78C124.049 81.884 123.009 80.796 122.177 79.516C121.361 78.22 120.953 76.588 120.953 74.62C120.953 71.98 121.793 69.812 123.473 68.116C125.169 66.404 127.625 65.548 130.841 65.548C132.473 65.548 133.857 65.74 134.993 66.124C136.145 66.508 137.073 66.948 137.777 67.444C138.497 67.94 139.033 68.348 139.385 68.668L136.697 73.564C136.473 73.244 136.097 72.852 135.569 72.388C135.041 71.924 134.393 71.516 133.625 71.164C132.857 70.812 132.009 70.636 131.081 70.636C129.785 70.636 128.809 71.012 128.153 71.764C127.513 72.5 127.193 73.372 127.193 74.38C127.193 75.676 127.665 76.732 128.609 77.548C129.569 78.364 130.729 79.18 132.089 79.996C133.593 80.892 134.985 81.796 136.265 82.708C137.545 83.604 138.577 84.684 139.361 85.948C140.145 87.196 140.537 88.796 140.537 90.748C140.537 93.676 139.617 95.972 137.777 97.636C135.937 99.284 133.417 100.108 130.217 100.108Z"/>
</mask>
<path d="M27.855 99.58V65.548H28.335L41.871 81.508L55.311 65.548H55.839V99.58H49.887V85.228L50.103 79.564L48.399 82.156L41.823 89.884L35.247 82.156L33.543 79.564L33.807 85.228V99.58H27.855ZM69.5778 99.58V66.124H75.7218V99.58H69.5778ZM89.4825 99.58V66.124H98.4585C100.73 66.124 102.794 66.468 104.65 67.156C106.506 67.844 107.986 69.044 109.09 70.756C110.194 72.452 110.746 74.812 110.746 77.836C110.746 80.028 110.33 82.1 109.498 84.052C108.666 85.988 107.354 87.564 105.562 88.78C103.786 89.996 101.482 90.604 98.6505 90.604H95.6745V99.58H89.4825ZM98.0745 70.972H95.6745V85.564H98.2185C100.33 85.564 101.914 84.932 102.97 83.668C104.026 82.404 104.554 80.572 104.554 78.172C104.554 75.724 104.074 73.916 103.114 72.748C102.154 71.564 100.474 70.972 98.0745 70.972ZM130.217 100.108C127.865 100.108 125.809 99.716 124.049 98.932C122.289 98.148 121.001 97.324 120.185 96.46L122.633 91.42C122.969 91.852 123.497 92.34 124.217 92.884C124.953 93.428 125.801 93.908 126.761 94.324C127.737 94.724 128.745 94.924 129.785 94.924C130.985 94.924 132.025 94.588 132.905 93.916C133.801 93.244 134.249 92.252 134.249 90.94C134.249 89.644 133.785 88.62 132.857 87.868C131.945 87.1 130.697 86.236 129.113 85.276C127.817 84.492 126.545 83.66 125.297 82.78C124.049 81.884 123.009 80.796 122.177 79.516C121.361 78.22 120.953 76.588 120.953 74.62C120.953 71.98 121.793 69.812 123.473 68.116C125.169 66.404 127.625 65.548 130.841 65.548C132.473 65.548 133.857 65.74 134.993 66.124C136.145 66.508 137.073 66.948 137.777 67.444C138.497 67.94 139.033 68.348 139.385 68.668L136.697 73.564C136.473 73.244 136.097 72.852 135.569 72.388C135.041 71.924 134.393 71.516 133.625 71.164C132.857 70.812 132.009 70.636 131.081 70.636C129.785 70.636 128.809 71.012 128.153 71.764C127.513 72.5 127.193 73.372 127.193 74.38C127.193 75.676 127.665 76.732 128.609 77.548C129.569 78.364 130.729 79.18 132.089 79.996C133.593 80.892 134.985 81.796 136.265 82.708C137.545 83.604 138.577 84.684 139.361 85.948C140.145 87.196 140.537 88.796 140.537 90.748C140.537 93.676 139.617 95.972 137.777 97.636C135.937 99.284 133.417 100.108 130.217 100.108Z" fill="white"/>
<path d="M27.855 99.58H24.855C24.855 101.237 26.1981 102.58 27.855 102.58V99.58ZM27.855 65.548V62.548C26.1981 62.548 24.855 63.8912 24.855 65.548H27.855ZM28.335 65.548L30.6229 63.6076C30.0529 62.9355 29.2162 62.548 28.335 62.548V65.548ZM41.871 81.508L39.583 83.4485C40.1542 84.1219 40.9931 84.5096 41.8762 84.508C42.7593 84.5065 43.5969 84.1159 44.1657 83.4404L41.871 81.508ZM55.311 65.548V62.548C54.426 62.548 53.5862 62.9387 53.0162 63.6156L55.311 65.548ZM55.839 65.548H58.839C58.839 63.8912 57.4958 62.548 55.839 62.548V65.548ZM55.839 99.58V102.58C57.4958 102.58 58.839 101.237 58.839 99.58H55.839ZM49.887 99.58H46.887C46.887 101.237 48.2301 102.58 49.887 102.58V99.58ZM49.887 85.228L46.8891 85.1137C46.8877 85.1518 46.887 85.1899 46.887 85.228L49.887 85.228ZM50.103 79.564L53.1008 79.6783C53.1521 78.3326 52.3003 77.1175 51.0177 76.7069C49.7351 76.2962 48.336 76.7907 47.5961 77.916L50.103 79.564ZM48.399 82.156L50.6837 84.1002C50.7638 84.0061 50.8379 83.9072 50.9058 83.804L48.399 82.156ZM41.823 89.884L39.5382 91.8282C40.1082 92.498 40.9434 92.884 41.823 92.884C42.7025 92.884 43.5377 92.498 44.1077 91.8282L41.823 89.884ZM35.247 82.156L32.7401 83.804C32.808 83.9072 32.8822 84.0061 32.9622 84.1002L35.247 82.156ZM33.543 79.564L36.0498 77.916C35.3074 76.7867 33.9015 76.2933 32.6162 76.7108C31.3308 77.1283 30.4833 78.3537 30.5462 79.7037L33.543 79.564ZM33.807 85.228H36.807C36.807 85.1814 36.8059 85.1349 36.8037 85.0883L33.807 85.228ZM33.807 99.58V102.58C35.4638 102.58 36.807 101.237 36.807 99.58H33.807ZM30.855 99.58V65.548H24.855V99.58H30.855ZM27.855 68.548H28.335V62.548H27.855V68.548ZM26.047 67.4885L39.583 83.4485L44.1589 79.5676L30.6229 63.6076L26.047 67.4885ZM44.1657 83.4404L57.6057 67.4804L53.0162 63.6156L39.5762 79.5756L44.1657 83.4404ZM55.311 68.548H55.839V62.548H55.311V68.548ZM52.839 65.548V99.58H58.839V65.548H52.839ZM55.839 96.58H49.887V102.58H55.839V96.58ZM52.887 99.58V85.228H46.887V99.58H52.887ZM52.8848 85.3423L53.1008 79.6783L47.1051 79.4497L46.8891 85.1137L52.8848 85.3423ZM47.5961 77.916L45.8921 80.508L50.9058 83.804L52.6098 81.212L47.5961 77.916ZM46.1142 80.2118L39.5382 87.9398L44.1077 91.8282L50.6837 84.1002L46.1142 80.2118ZM44.1077 87.9398L37.5317 80.2118L32.9622 84.1002L39.5382 91.8282L44.1077 87.9398ZM37.7538 80.508L36.0498 77.916L31.0361 81.212L32.7401 83.804L37.7538 80.508ZM30.5462 79.7037L30.8102 85.3677L36.8037 85.0883L36.5397 79.4243L30.5462 79.7037ZM30.807 85.228V99.58H36.807V85.228H30.807ZM33.807 96.58H27.855V102.58H33.807V96.58ZM69.5778 99.58H66.5778C66.5778 101.237 67.921 102.58 69.5778 102.58V99.58ZM69.5778 66.124V63.124C67.921 63.124 66.5778 64.4672 66.5778 66.124H69.5778ZM75.7218 66.124H78.7218C78.7218 64.4672 77.3787 63.124 75.7218 63.124V66.124ZM75.7218 99.58V102.58C77.3787 102.58 78.7218 101.237 78.7218 99.58H75.7218ZM72.5778 99.58V66.124H66.5778V99.58H72.5778ZM69.5778 69.124H75.7218V63.124H69.5778V69.124ZM72.7218 66.124V99.58H78.7218V66.124H72.7218ZM75.7218 96.58H69.5778V102.58H75.7218V96.58ZM89.4825 99.58H86.4825C86.4825 101.237 87.8256 102.58 89.4825 102.58V99.58ZM89.4825 66.124V63.124C87.8256 63.124 86.4825 64.4672 86.4825 66.124H89.4825ZM109.09 70.756L106.569 72.3819L106.576 72.3926L109.09 70.756ZM109.498 84.052L112.255 85.2365L112.258 85.2283L109.498 84.052ZM105.562 88.78L103.878 86.2976L103.868 86.3046L105.562 88.78ZM95.6745 90.604V87.604C94.0176 87.604 92.6745 88.9472 92.6745 90.604H95.6745ZM95.6745 99.58V102.58C97.3313 102.58 98.6745 101.237 98.6745 99.58H95.6745ZM95.6745 70.972V67.972C94.0176 67.972 92.6745 69.3152 92.6745 70.972H95.6745ZM95.6745 85.564H92.6745C92.6745 87.2209 94.0176 88.564 95.6745 88.564V85.564ZM103.114 72.748L100.784 74.6374C100.788 74.6426 100.793 74.6478 100.797 74.6529L103.114 72.748ZM92.4825 99.58V66.124H86.4825V99.58H92.4825ZM89.4825 69.124H98.4585V63.124H89.4825V69.124ZM98.4585 69.124C100.426 69.124 102.131 69.4215 103.608 69.969L105.693 64.3431C103.458 63.5145 101.034 63.124 98.4585 63.124V69.124ZM103.608 69.969C104.837 70.4246 105.806 71.1979 106.569 72.3819L111.612 69.1302C110.167 66.8901 108.176 65.2635 105.693 64.3431L103.608 69.969ZM106.576 72.3926C107.243 73.4167 107.746 75.1238 107.746 77.836H113.746C113.746 74.5002 113.146 71.4874 111.605 69.1194L106.576 72.3926ZM107.746 77.836C107.746 79.6374 107.407 81.308 106.739 82.8757L112.258 85.2283C113.254 82.892 113.746 80.4186 113.746 77.836H107.746ZM106.742 82.8675C106.143 84.2623 105.21 85.3937 103.878 86.2976L107.247 91.2624C109.499 89.7344 111.19 87.7138 112.255 85.2365L106.742 82.8675ZM103.868 86.3046C102.727 87.0859 101.066 87.604 98.6505 87.604V93.604C101.899 93.604 104.846 92.9061 107.257 91.2554L103.868 86.3046ZM98.6505 87.604H95.6745V93.604H98.6505V87.604ZM92.6745 90.604V99.58H98.6745V90.604H92.6745ZM95.6745 96.58H89.4825V102.58H95.6745V96.58ZM98.0745 67.972H95.6745V73.972H98.0745V67.972ZM92.6745 70.972V85.564H98.6745V70.972H92.6745ZM95.6745 88.564H98.2185V82.564H95.6745V88.564ZM98.2185 88.564C100.949 88.564 103.493 87.7213 105.273 85.5914L100.668 81.7446C100.336 82.1428 99.7121 82.564 98.2185 82.564V88.564ZM105.273 85.5914C106.946 83.5884 107.554 80.962 107.554 78.172H101.554C101.554 80.1821 101.107 81.2196 100.668 81.7446L105.273 85.5914ZM107.554 78.172C107.554 75.43 107.034 72.7922 105.432 70.8431L100.797 74.6529C101.115 75.0398 101.554 76.018 101.554 78.172H107.554ZM105.445 70.8586C103.653 68.6486 100.858 67.972 98.0745 67.972V73.972C100.091 73.972 100.656 74.4795 100.784 74.6374L105.445 70.8586ZM124.049 98.932L122.828 101.672L122.828 101.672L124.049 98.932ZM120.185 96.46L117.486 95.1493C116.941 96.2712 117.147 97.6132 118.004 98.5199L120.185 96.46ZM122.633 91.42L125.001 89.5782C124.365 88.76 123.351 88.3283 122.32 88.4364C121.289 88.5444 120.387 89.177 119.934 90.1093L122.633 91.42ZM124.217 92.884L122.408 95.2776C122.417 95.284 122.425 95.2903 122.434 95.2965L124.217 92.884ZM126.761 94.324L125.568 97.0767C125.586 97.0846 125.605 97.0924 125.623 97.0999L126.761 94.324ZM132.905 93.916L131.105 91.516C131.098 91.5212 131.091 91.5265 131.084 91.5317L132.905 93.916ZM132.857 87.868L130.924 90.1628C130.939 90.1749 130.953 90.1869 130.968 90.1988L132.857 87.868ZM129.113 85.276L130.668 82.7104L130.666 82.7091L129.113 85.276ZM125.297 82.78L123.547 85.217C123.554 85.222 123.561 85.2269 123.568 85.2318L125.297 82.78ZM122.177 79.516L119.638 81.1145C119.646 81.1267 119.654 81.1389 119.662 81.151L122.177 79.516ZM123.473 68.116L121.342 66.0047L121.341 66.0048L123.473 68.116ZM134.993 66.124L134.032 68.9661L134.044 68.9701L134.993 66.124ZM137.777 67.444L136.049 69.8965C136.058 69.9025 136.066 69.9086 136.075 69.9145L137.777 67.444ZM139.385 68.668L142.015 70.1118C142.682 68.896 142.429 67.3812 141.403 66.4482L139.385 68.668ZM136.697 73.564L134.239 75.2844C134.834 76.1337 135.825 76.6159 136.86 76.5596C137.895 76.5033 138.828 75.9165 139.327 75.0078L136.697 73.564ZM135.569 72.388L133.588 74.6415L133.588 74.6415L135.569 72.388ZM133.625 71.164L132.375 73.8912L132.375 73.8912L133.625 71.164ZM128.153 71.764L125.892 69.7919L125.889 69.7955L128.153 71.764ZM128.609 77.548L126.647 79.8176C126.653 79.8231 126.66 79.8285 126.666 79.8338L128.609 77.548ZM132.089 79.996L130.545 82.5685L130.553 82.5733L132.089 79.996ZM136.265 82.708L134.524 85.1513C134.531 85.1561 134.538 85.1609 134.544 85.1657L136.265 82.708ZM139.361 85.948L136.811 87.5293C136.814 87.5342 136.817 87.539 136.821 87.5439L139.361 85.948ZM137.777 97.636L139.778 99.8707C139.782 99.8675 139.786 99.8643 139.789 99.8611L137.777 97.636ZM130.217 97.108C128.195 97.108 126.57 96.771 125.27 96.1916L122.828 101.672C125.047 102.661 127.535 103.108 130.217 103.108V97.108ZM125.27 96.1916C123.674 95.4809 122.793 94.8523 122.366 94.4001L118.004 98.5199C119.209 99.7957 120.904 100.815 122.828 101.672L125.27 96.1916ZM122.883 97.7707L125.331 92.7307L119.934 90.1093L117.486 95.1493L122.883 97.7707ZM120.265 93.2618C120.833 93.9919 121.595 94.6633 122.408 95.2776L126.025 90.4904C125.398 90.0167 125.105 89.7121 125.001 89.5782L120.265 93.2618ZM122.434 95.2965C123.377 95.9936 124.428 96.5827 125.568 97.0767L127.954 91.5713C127.174 91.2333 126.529 90.8624 126 90.4715L122.434 95.2965ZM125.623 97.0999C126.955 97.6457 128.349 97.924 129.785 97.924V91.924C129.141 91.924 128.519 91.8023 127.899 91.5481L125.623 97.0999ZM129.785 97.924C131.584 97.924 133.278 97.4058 134.726 96.3003L131.084 91.5317C130.772 91.7702 130.385 91.924 129.785 91.924V97.924ZM134.705 96.316C136.492 94.9758 137.249 93.0129 137.249 90.94H131.249C131.249 91.2561 131.195 91.3966 131.179 91.4333C131.17 91.4525 131.164 91.4613 131.159 91.467C131.154 91.473 131.14 91.4899 131.105 91.516L134.705 96.316ZM137.249 90.94C137.249 88.8272 136.442 86.912 134.746 85.5372L130.968 90.1988C131.128 90.3281 131.249 90.4609 131.249 90.94H137.249ZM134.789 85.5733C133.713 84.6666 132.32 83.712 130.668 82.7104L127.558 87.8416C129.073 88.76 130.177 89.5334 130.924 90.1628L134.789 85.5733ZM130.666 82.7091C129.43 81.9617 128.217 81.1682 127.026 80.3282L123.568 85.2318C124.873 86.1519 126.204 87.0223 127.56 87.8429L130.666 82.7091ZM127.046 80.343C126.099 79.6631 125.32 78.8464 124.692 77.8811L119.662 81.151C120.698 82.7456 121.998 84.105 123.547 85.217L127.046 80.343ZM124.716 77.9176C124.276 77.2191 123.953 76.1815 123.953 74.62H117.953C117.953 76.9946 118.446 79.2209 119.638 81.1145L124.716 77.9176ZM123.953 74.62C123.953 72.679 124.542 71.2995 125.604 70.2273L121.341 66.0048C119.044 68.3245 117.953 71.281 117.953 74.62H123.953ZM125.604 70.2274C126.568 69.2545 128.148 68.548 130.841 68.548V62.548C127.101 62.548 123.77 63.5535 121.342 66.0047L125.604 70.2274ZM130.841 68.548C132.256 68.548 133.295 68.7168 134.032 68.966L135.954 63.282C134.419 62.7632 132.69 62.548 130.841 62.548V68.548ZM134.044 68.9701C135.023 69.2963 135.66 69.6222 136.049 69.8965L139.505 64.9916C138.486 64.2738 137.267 63.7198 135.942 63.278L134.044 68.9701ZM136.075 69.9145C136.759 70.3861 137.165 70.7041 137.367 70.8878L141.403 66.4482C140.901 65.9919 140.234 65.4939 139.479 64.9735L136.075 69.9145ZM136.755 67.2242L134.067 72.1202L139.327 75.0078L142.015 70.1118L136.755 67.2242ZM139.155 71.8436C138.725 71.2305 138.138 70.6523 137.549 70.1345L133.588 74.6415C133.806 74.8326 133.967 74.987 134.082 75.1067C134.201 75.231 134.242 75.2885 134.239 75.2844L139.155 71.8436ZM137.549 70.1345C136.763 69.4437 135.856 68.8867 134.875 68.4368L132.375 73.8912C132.929 74.1453 133.319 74.4043 133.588 74.6415L137.549 70.1345ZM134.875 68.4368C133.677 67.888 132.397 67.636 131.081 67.636V73.636C131.62 73.636 132.036 73.736 132.375 73.8912L134.875 68.4368ZM131.081 67.636C129.194 67.636 127.277 68.2042 125.892 69.7919L130.414 73.7361C130.415 73.7346 130.415 73.7349 130.413 73.7362C130.413 73.7367 130.412 73.7373 130.411 73.7377C130.411 73.7382 130.411 73.7384 130.411 73.7384C130.411 73.7384 130.411 73.7379 130.413 73.7371C130.414 73.7363 130.416 73.735 130.419 73.7333C130.426 73.7299 130.437 73.7244 130.455 73.7175C130.528 73.6895 130.717 73.636 131.081 73.636V67.636ZM125.889 69.7955C124.757 71.0971 124.193 72.675 124.193 74.38H130.193C130.193 74.069 130.268 73.9029 130.417 73.7326L125.889 69.7955ZM124.193 74.38C124.193 76.5089 125.015 78.4071 126.647 79.8176L130.571 75.2784C130.315 75.057 130.193 74.8431 130.193 74.38H124.193ZM126.666 79.8338C127.778 80.7792 129.079 81.6886 130.545 82.5685L133.632 77.4235C132.379 76.6714 131.36 75.9488 130.552 75.2622L126.666 79.8338ZM130.553 82.5733C131.995 83.4321 133.318 84.2917 134.524 85.1513L138.006 80.2648C136.652 79.3003 135.191 78.3519 133.624 77.4187L130.553 82.5733ZM134.544 85.1657C135.509 85.8407 136.252 86.6279 136.811 87.5293L141.91 84.3667C140.901 82.7402 139.581 81.3673 137.985 80.2503L134.544 85.1657ZM136.821 87.5439C137.221 88.182 137.537 89.1817 137.537 90.748H143.537C143.537 88.4103 143.068 86.21 141.901 84.3522L136.821 87.5439ZM137.537 90.748C137.537 92.9952 136.862 94.4189 135.765 95.411L139.789 99.8611C142.372 97.5251 143.537 94.3568 143.537 90.748H137.537ZM135.775 95.4013C134.632 96.4251 132.902 97.108 130.217 97.108V103.108C133.931 103.108 137.241 102.143 139.778 99.8707L135.775 95.4013Z" fill="#4F4C63" mask="url(#path-3-outside-1_5_22)"/>
</svg>
